<svg xmlns="http://www.w3.org/2000/svg" width="214" height="53" viewBox="0 0 214 53"><path fill="#0d6bb4" d="M31.44 18.3H16.43a1.26 1.26 0 0 1-1.17-1.7c1.36-3.28 4.4-5.09 8.55-5.09 4.55 0 7.6 1.77 8.82 5.12.14.38.08.8-.15 1.13-.24.34-.63.54-1.04.54zm12.72 21.95c.41-.5.35-1.24-.14-1.69l-7.41-6.8a1.21 1.21 0 0 0-.85-.33c-.39 0-.75.18-.98.49-2.16 2.96-5.76 4.59-10.12 4.59-4.15 0-9.19-3.16-10.07-7.88-.07-.35.03-.72.26-1 .25-.29.61-.46.98-.46h30.63c.69 0 1.25-.56 1.25-1.25v-1.86C47.71 9.67 38.1 0 23.81 0 9.57 0 0 9.67 0 24.06c0 14.33 9.91 23.96 24.66 23.96 8.95 0 15.15-2.47 19.5-7.77z"/><path fill="#73b62e" d="M14.57 28.49a9.42 9.42 0 0 0 4.19 5.99l-.14.03c-.49.11-1.01.34-1.17.77-.16.43-.4 1.43-1.07 2.15-.66.72-.59.92-.67 1.26-.08.34-.34.39-.25.6.1.2.41.39.12.68-.3.29-.73.87-.5 1.32.24.45.7.95.19 1.11-.51.17-2.65-.39-2.85-1.48a5.17 5.17 0 0 0-.5-1.7c-.32-.4-.72-2.44-.72-2.95 0-.5-.29-.71-.43-1.05-.14-.36.2-.82.2-1.16 0-.34.05-1.91-.14-2.26-.2-.35-.7-1.15-.7-1.58 0-.42-.93-.49-1.15-.74-.23-.24-1.53-1.56-1.25-2.37s.19-.3-.1-.88c-.3-.59-.49-2.38-.1-2.82.39-.43.51-.75.57-1.06.07-.37.13-1.26-.6-1.21-.42.03-.79-.39-.83-.71-.04-.32.02-.89-.14-1.02A1.95 1.95 0 0 1 6 18.7c-.06-.2-.18-.56-.3-.64a2.36 2.36 0 0 1-.49-.69c-.14-.28-.02-.62-.27-.71-.24-.09-.93-.26-1.28-.71-.35-.45-.45-.64-.54-.78-.09-.14-.15-.23-.11-.58.05-.35.15-.89.15-1.24s.1-.82.23-1.04c.13-.22.45-1.25-.06-1.61C6.91 4.63 13.1.72 21.02 0l.04.03c.25.22-.13.56-.19.69-.06.12.07.17.14.25.06.08.07.53-.16.61-.22.09-.11.53-.28.71-.16.19-.91.33-1.13.11-.22-.22-.57-.58-.86-.54-.29.05-.25.15-.63.23-.38.08-.8-.29-1.15-.05-.35.23-1.2 1.08-1.58 1.21-.39.13-.77 1.05-.55 1.41.22.36.91 1.11 1.67.39.63-.6.3-1 .76-1.01.13 0 .76-.17.86-.37.1-.21.62-.93.91-.57.28.36.45.49.67.41.23-.08.57.1.4.43-.17.33-.36.53.01.91.37.37.67.97.42 1.39-.29.51-.77.4-1.8.31-.59-.04-.57.9-.57.99-.01.17-.85.25-2.05.32-1.2.07-1.43.54-1.78.81-.36.28-.69.48-1.02.5-.32.02-.2.72-.67 1.07-.48.35-1.34.69-1.48 1-.13.3.12.81-.06 1.22-.17.41-.25 1.15-.79 1.05-.55-.09-.56-1.64-1.12-2.02-.55-.38-.92-.09-1.12-.07-.21.03-.9-.11-1.13-.03-.23.07-.59.28-.92.7a2.62 2.62 0 0 0-.65 2.13c.17 1 1.01 1.35 1.25 1.15.24-.21.33.39.3.53-.02.14-.52.67-.5 1.11.03.45.83.61.96.98.12.37.01 1.05.22 1.28.21.23.68 1.25 1.14 1.17 1.01-.15 1.27-1.39 1.84-1.31.41.07 1.88.74 2.16.75.28 0 .53-.09.8-.05.26.03.96.64 1.11.93.15.29 1.91.76 2.06 1.04.15.28.56.11.72.19.16.09 1.16 2.1 1.4 2.41.24.3.7.03.95.12.24.1.69.83 1.2 1.19.51.35 1.1.23 1.55.24.46.01 1.24.59 1.24 1.08v.01H15.8c-.82 0-1.33.79-1.24 1.35zm33.1-2.69c0 .68-.56 1.24-1.25 1.24h-5.45l.02-.04s.18-.99-.17-1.4c-.36-.4-.29-1.16-.29-1.72 0-.55-.57-.72-.94-.71-.36.02-.99-.5-1.56-.61-.57-.12-2.77.51-3.2.51-.42 0-1.99-1.2-2.48-1.65-.49-.47.17-2.93.31-3.24.15-.31.1-.76.18-1.1.07-.34-.19-1.08-.07-1.65.12-.58.25-.79.49-.95.24-.16.92-.59 1.28-.94.37-.35.15-.73.44-1.03.29-.3.96-.48 2.24-.69a5.2 5.2 0 0 1 3.43.82c.61.48 1.48.45 1.8.31.31-.15.55-.14 1.08.31.52.45.67-.71.57-.88-.09-.17-.34-.25-.31-.5.03-.25-.29-.77-.53-.59-.23.18-1.1.08-1.21-.24-.1-.31-.52-.32-.64.03s-.74-.06-.65-.42c.1-.35-.47-.54-.59-.1-.12.43-1.14.19-1.3-.02-.26-.34.4-.77-.13-1.11-.27-.18-.82.42-1.18.36-.14-.02-.49-.71-.77-.19-.27.51-.8 1.38-1.96 1.35-1.15-.03-1.76-.96-1.57-1.51.19-.55.69-.67 1.44-.36.75.32.56-.45.56-.76 0-.3.65-.08.82-.1.17-.03.04-.32.2-.38.16-.07.12-1.29.08-1.39-.04-.11-.45.13-.47-.65-.03-.77-.06-.46-.29-.21-.24.25-.63-.35-.73-.43-.09-.08-.23-.43-.5-.8-.26-.37-.4.34-.65.37-.25.02-.65-.92-.63-1.08.01-.16-.02-.5-.28-.71-.26-.21-.2-.55-.15-.67.05-.12.37-.04.6.09.23.13.69-.09.83 0 .13.09 1.3.28 1.51.26l.15-.01c7.4 3.8 11.87 11.33 11.92 21.13zM25.68 3.38c.61-.14.59.81.14 1.2-.46.4-.61.08-.8-.57-.2-.65.12-.5.66-.63zM10.56 16.41c.38-.01.99-.53 1.19-.2.2.32.82.41.69.77-.14.36-2.46.22-2.66.04-.2-.19.1-.59.78-.61zM9.19 14.3c.74.02 1.66.98 1.34 1.22-.32.24-1.59-.26-1.88-.74-.28-.48.24-.49.54-.48zm15.45 33.59c-5.5 0-9.24-1.44-9.24-1.44.45-.76 1.57-.77 1.99-.93.42-.15.78-.79 1.12-.83.34-.03.26.5.37.85.1.34 2.29.76 2.61.98.33.22.53-.32 1-.43.48-.12 1.36.27 2.08.13.72-.15 1.03-.4 1.58-.12.55.27 1.42.42 1.79.16.37-.27.76-.39 1.4-.09.65.3.74-.35 1.16-.56.42-.21 1.75.98 2.25 1.42 0 0-2.94.86-8.11.86zm18.39-10.36c-1.46 1.65-3.71 1.78-4.04 1.35-.32-.43-.03-.9.18-1.51.21-.62-.02-.92-.24-1.42-.23-.5.56-1.32.67-1.55zM31.99 5.5c.75.46.55.45.29.85-.27.41-.83.03-.83-.25 0-.27.3-.74.54-.6zm.43-1.02c.24.09.62.08.64.22.03.14.28.76 1.07 1.2.79.43.35 1.23 0 1.41-.36.19-.75 0-1.24-.18-.48-.18-.13-1.05-.15-1.3-.03-.25-.35-.47-.57-.67-.22-.2-.29-.26-.32-.53-.02-.26.29-.25.57-.15zM24.83.68c-.38.03-.76-.28-1.3-.33-.33-.03-1 .34-.75.74.25.39.13.51-.05 1.13-.18.62.09 1.73.8 1.64.71-.09.8-1.19 1.18-1.16.39.04.49 0 .64-.19.14-.2.46-.43.73-.4.28.03 1.25-.69 1.17-1.05-.08-.35-.64-.27-.9-.31-.27-.04-.36-.4-.69-.4-.15.01-.45.31-.83.33z"/><path fill="#fff" d="M57.29 28.01h2.9c.73 0 1.32-.6 1.32-1.33v-9.16c0-2.71 1.16-4.02 3.54-4.02 2.09 0 2.91 1.13 2.91 4.02v9.87c0 .34.28.62.62.62h4.27c.34 0 .62-.28.62-.62v-9.87c0-5.79-2.01-8.15-6.96-8.15-1.61 0-2.87.27-3.74.8a.93.93 0 0 1-.45.13.8.8 0 0 1-.81-.8V2.27c0-.7-.57-1.27-1.27-1.27h-2.99C56.56 1 56 1.56 56 2.24v24.48c0 .71.58 1.29 1.29 1.29m24.22-5.62c-.09-.61.06-1.19.43-1.63.43-.5 1.11-.79 1.88-.79h2.75a.5.5 0 0 1 .49.5v1.14c0 .88-.86 2.2-3.24 2.2-1.39 0-2.17-.48-2.31-1.42zm-3.93-10.46c-.1.1-.15.25-.13.4.02.15.11.29.25.36l3.21 1.85a.6.6 0 0 0 .26.07c.13 0 .24-.05.33-.13.73-.7 1.51-.94 2.96-.94 1.31 0 2.28.64 2.53 1.68.04.14.01.28-.08.39a.5.5 0 0 1-.4.2H84.2c-4.98 0-8.2 2.54-8.2 6.47 0 3.81 2.28 5.66 6.97 5.66 1.6 0 3.17-.6 4.09-1.57v.82c0 .27.22.49.5.49h4.53a.5.5 0 0 0 .49-.49V14.84c0-2.69-2.03-5.84-7.75-5.84-2.82 0-5.33 1.01-7.25 2.93zM95.6 27.68h4.35a.6.6 0 0 0 .6-.6V.6a.6.6 0 0 0-.6-.6H95.6a.6.6 0 0 0-.6.6v26.48c0 .33.27.6.6.6m8.08-14.18h.69c.37 0 .68.31.68.68v12.49c0 .37.3.68.68.68h4.15c.38 0 .68-.31.68-.68V14.18c0-.37.31-.68.68-.68h3c.38 0 .68-.3.68-.67V9.64c0-.37-.3-.67-.68-.67h-3.68v-.86c0-1.84.24-3.53 2.01-3.53.3 0 .88.02 1.45.23.08.02.15.04.23.04.37 0 .67-.31.67-.68V1.36a.69.69 0 0 0-.36-.6A5.55 5.55 0 0 0 111.9 0c-4.74 0-6.85 2.5-6.85 8.11v.86h-1.37c-.38 0-.68.3-.68.67v3.19c0 .37.3.67.68.67m19.2 1.5h-6.24a.64.64 0 0 0-.64.64v3.41c0 .35.29.64.64.64h6.03a.6.6 0 0 0 .47-.21c.12-.13.18-.3.17-.48a11.95 11.95 0 0 1 .19-3.24.6.6 0 0 0-.12-.52.65.65 0 0 0-.5-.24m15.52 1.22h-5.92a.52.52 0 0 1-.42-.23.46.46 0 0 1-.04-.44c.54-1.3 1.73-2.01 3.37-2.01 1.79 0 3 .7 3.48 2.02a.5.5 0 0 1-.06.44.5.5 0 0 1-.41.22zm5.01 8.65a.47.47 0 0 0-.05-.66l-2.92-2.69a.51.51 0 0 0-.34-.13.46.46 0 0 0-.38.2 4.8 4.8 0 0 1-4 1.81c-1.63 0-3.62-1.25-3.97-3.11a.5.5 0 0 1 .11-.39.47.47 0 0 1 .38-.19h12.08a.5.5 0 0 0 .49-.49v-.73c0-5.68-3.78-9.49-9.42-9.49-5.62 0-9.39 3.81-9.39 9.49 0 5.65 3.91 9.45 9.72 9.45 3.53 0 5.98-.98 7.69-3.07zm8.1-2.48c-.09-.61.06-1.19.43-1.63.43-.5 1.12-.79 1.88-.79h2.68c.31 0 .56.26.56.57v1.07c0 .88-.86 2.2-3.24 2.2-1.39 0-2.17-.48-2.31-1.42zm-3.84-10.55a.6.6 0 0 0-.17.49c.02.17.12.32.28.41l3.1 1.78c.09.04.18.07.28.07.14 0 .27-.05.37-.14.72-.66 1.51-.91 2.93-.91 1.24 0 2.17.57 2.49 1.52.06.17.03.37-.08.52a.57.57 0 0 1-.45.23h-2.22c-4.98 0-8.2 2.54-8.2 6.47 0 3.81 2.28 5.66 6.97 5.66 1.6 0 3.17-.6 4.09-1.57v.75c0 .31.26.56.57.56h4.39c.31 0 .56-.25.56-.56V14.84c0-2.69-2.03-5.84-7.75-5.84-2.77 0-5.25.98-7.16 2.84zm26.85 1.32c.3 0 .6.04 1.11.21a.62.62 0 0 0 .83-.48l.53-2.9a.63.63 0 0 0-.38-.69 5.39 5.39 0 0 0-2.22-.3c-1.17 0-3.14.59-3.88 1.9V9.89a.63.63 0 0 0-.63-.63h-4.25a.63.63 0 0 0-.63.63v17.12c0 .35.28.63.63.63h4.25c.35 0 .63-.28.63-.63V17.3c0-2.78 1.16-4.13 3.54-4.13l.26-.01h.21m16.8-3.88h-3.15a.6.6 0 0 1-.61-.6V4.61a.6.6 0 0 0-.6-.61h-4.31a.6.6 0 0 0-.6.61v4.07a.6.6 0 0 1-.61.6h-.84a.6.6 0 0 0-.6.61v3.33c0 .33.27.6.6.6h.84a.6.6 0 0 1 .61.61v5.42c0 5.84 1.92 8.11 6.85 8.11.84 0 1.72-.25 2.71-.76.19-.1.31-.3.31-.53V23.6a.6.6 0 0 0-.6-.61.6.6 0 0 0-.27.07c-.48.25-.94.36-1.48.36-.88 0-1.46-.41-1.76-1.25-.25-.7-.25-1.6-.25-2.25v-5.49a.6.6 0 0 1 .61-.61h3.15a.6.6 0 0 0 .6-.6V9.89a.6.6 0 0 0-.6-.61m15.19.09c-2.28 0-3.88.56-4.64 1.61a.18.18 0 0 1-.15.08c-.11 0-.21-.09-.21-.2V1.25a.25.25 0 0 0-.25-.25h-5.01a.25.25 0 0 0-.25.25v26.51c0 .14.11.25.25.25h5.01c.14 0 .25-.11.25-.25V17.52c0-2.71 1.16-4.02 3.54-4.02 2.09 0 2.91 1.13 2.91 4.02v10.24c0 .14.11.25.25.25h5.01c.14 0 .25-.11.25-.25V17.52c0-5.79-2.01-8.15-6.96-8.15M61.02 45.3c-.79 0-1.53-.53-1.98-1.42a3.49 3.49 0 0 1-.34-1.55c0-.52.13-1.11.34-1.57.43-.86 1.21-1.42 1.98-1.42 1.31 0 2.37 1.34 2.37 2.99 0 1.64-1.06 2.97-2.37 2.97zm-1.92-7.42v-.48a.25.25 0 0 0-.25-.25h-2.33a.51.51 0 0 0-.52.51V51.8c0 .29.23.52.52.52h2.06c.29 0 .52-.23.52-.52v-4.09c0-.28.23-.52.51-.52.08 0 .15.02.22.05.53.23 1.19.4 1.61.4 2.99 0 5.07-2.18 5.07-5.31A5.13 5.13 0 0 0 61.23 37c-.86 0-1.68.34-2.13.88zm15.34-.74a3.21 3.21 0 0 0-1.17-.14c-.65 0-1.76.33-2.17 1.07v-.67a.25.25 0 0 0-.25-.25h-2.41c-.24 0-.44.2-.44.44v9.44c0 .24.2.44.44.44h2.21c.25 0 .45-.2.45-.44v-5.37c0-1.56.65-2.32 1.98-2.32h.27c.12 0 .27 0 .53.09.05.02.09.02.14.02.21 0 .4-.15.44-.36l.26-1.46a.43.43 0 0 0-.28-.49m8.37 5.19c0 1.57-1.02 2.76-2.37 2.76-1.33 0-2.34-1.19-2.34-2.76 0-1.58 1.01-2.78 2.34-2.78 1.35 0 2.37 1.2 2.37 2.78zm-7.81 0a5.32 5.32 0 0 0 5.44 5.31 5.27 5.27 0 0 0 5.47-5.31c0-2.99-2.4-5.33-5.47-5.33A5.33 5.33 0 0 0 75 42.33zM91.35 37h-2.28a.4.4 0 0 0-.41.41v9.16c0 1.53-.87 1.66-1.13 1.66-.45 0-.73-.05-.97-.16-.05-.02-.1-.04-.15-.04-.22 0-.41.2-.41.42v1.81c0 .16.1.31.25.37a4.2 4.2 0 0 0 2.39.52c2.12 0 3.12-1.46 3.12-4.58v-9.16a.41.41 0 0 0-.41-.41m-1.7-4c-.93 0-1.65.67-1.65 1.52 0 .88.72 1.57 1.65 1.57.92 0 1.64-.69 1.64-1.57 0-.85-.72-1.52-1.64-1.52m8.63 6.55c.99 0 1.64.36 1.93 1.08.04.09.02.2-.03.29a.34.34 0 0 1-.26.14h-3.23c-.1 0-.2-.06-.26-.15a.28.28 0 0 1-.02-.29c.31-.69.97-1.07 1.87-1.07zM93 42.33c0 3.18 2.2 5.31 5.46 5.31 1.97 0 3.34-.54 4.3-1.7.11-.12.09-.3-.03-.42l-1.59-1.46a.35.35 0 0 0-.22-.08.3.3 0 0 0-.23.11c-.48.65-1.27 1-2.23 1-.89 0-1.99-.65-2.22-1.69a.3.3 0 0 1 .07-.26.3.3 0 0 1 .24-.12h6.77c.14 0 .25-.11.25-.25v-.44c0-3.19-2.13-5.33-5.29-5.33S93 39.14 93 42.33z"/><path fill="#fff" d="M109.44 39.55c.41 0 1.41.1 1.98.99.06.09.16.14.27.14.07 0 .15-.03.21-.08l1.63-1.48c.07-.05.1-.14.11-.23a.32.32 0 0 0-.09-.23 5.75 5.75 0 0 0-4.11-1.66 5.33 5.33 0 1 0 0 10.64c1.59 0 3.01-.58 4.11-1.66a.32.32 0 0 0 .09-.23c-.01-.09-.04-.18-.11-.23l-1.62-1.47a.32.32 0 0 0-.21-.08.33.33 0 0 0-.27.15c-.38.64-1.07.97-1.99.97-1.33 0-2.34-1.19-2.34-2.76 0-1.58 1.01-2.78 2.34-2.78m11.84-2.58h-1.62a.41.41 0 0 1-.41-.41v-2.15a.41.41 0 0 0-.41-.41h-2.28a.41.41 0 0 0-.41.41v2.15c0 .22-.18.41-.41.41h-.33a.41.41 0 0 0-.41.41v1.73c0 .22.19.41.41.41h.33a.4.4 0 0 1 .41.41v2.98c0 3.78 1.54 4.55 3.85 4.55.46 0 .95-.13 1.48-.4a.42.42 0 0 0 .22-.37v-1.57a.4.4 0 0 0-.41-.4.4.4 0 0 0-.19.04c-.23.1-.46.15-.72.15-.49 0-.82-.24-.99-.7-.14-.4-.14-.9-.14-1.27v-3.01a.4.4 0 0 1 .41-.41h1.62c.23 0 .42-.19.42-.41v-1.73a.41.41 0 0 0-.42-.41"/></svg>